#!OML:ASF Y:\EmotionMaleHayes\Project 1\Capture day 1\Session 1\Male1.ASF
:FULLY-SPECIFIED
:DEGREES
1592
root 12.1321 17.0416 -2.90167 351.449 -18.949 731.08
lowerback 5.83269 -0.964561 -15.3053
upperback 1.29661 -2.28318 -2.48307
thorax -1.41997 -1.11113 6.08615
lowerneck -21.5217 -4.73229 -2.66453
upperneck 18.3259 -6.66117 4.16481
head 9.57456 -2.80719 0.919567
rclavicle 3.3402e-014 -7.15625e-014
rhumerus -48.0194 -1.91091 -78.2263
rradius 33.2488
rwrist -0.209171
rhand -11.7895 -33.7035
rfingers 7.12502
rthumb 14.2598 -63.194
lclavicle 3.3402e-014 -7.15625e-014
lhumerus -17.9406 -24.4384 85.5132
lradius 46.3361
lwrist 5.4579
lhand -15.64 -21.7724
lfingers 7.12502
lthumb 10.5475 7.94292
rfemur -18.0798 -0.289631 4.03845
rtibia 44.8501
rfoot -14.9515 -2.31312
rtoes -0.929847
lfemur 15.8923 7.53581 -35.8786
ltibia 2.72101
lfoot -12.6614 1.21817
ltoes 0.818603
1593
root 12.0925 17.031 -2.80793 351.512 -18.7562 731.389
lowerback 5.66256 -1.09712 -15.6219
upperback 1.28821 -2.44557 -2.49858
thorax -1.28437 -1.20003 6.24444
lowerneck -21.3847 -4.67068 -2.57929
upperneck 18.2798 -6.6063 4.17456
head 9.52953 -2.77784 0.920184
rclavicle -2.7044e-014 -1.00187e-013
rhumerus -48.3127 -2.60405 -77.6106
rradius 33.026
rwrist -0.453282
rhand -12.1366 -33.6872
rfingers 7.12502
rthumb 13.9254 -63.2009
lclavicle -2.7044e-014 -1.00187e-013
lhumerus -17.4611 -25.0761 85.4895
lradius 46.5536
lwrist 5.59138
lhand -16.0426 -21.283
lfingers 7.12502
lthumb 10.159 8.45168
rfemur -19.0841 -1.33251 3.74406
rtibia 43.6293
rfoot -14.7672 -2.38119
rtoes -7.98217
lfemur 16.1302 7.24248 -36.2374
ltibia 2.75219
lfoot -13.4932 1.47733
ltoes 2.07132
1594
root 12.0417 17.0143 -2.71824 351.511 -18.7102 731.522
lowerback 5.61441 -1.15263 -15.8405
upperback 1.30845 -2.51897 -2.45912
thorax -1.20709 -1.24267 6.40686
lowerneck -21.3815 -4.63813 -2.59921
upperneck 18.3033 -6.5703 4.23298
head 9.53903 -2.75545 0.948855
rclavicle 2.38511e-014 -1.17283e-014
rhumerus -48.6684 -3.03398 -77.1384
rradius 32.9744
rwrist -0.653339
rhand -12.0377 -33.9079
rfingers 7.12502
rthumb 14.0207 -63.415
lclavicle 2.38511e-014 -1.17283e-014
lhumerus -16.9558 -25.5341 85.4143
lradius 46.7195
lwrist 5.64047
lhand -15.996 -21.0421
lfingers 7.12502
lthumb 10.204 8.69041
rfemur -19.8757 -1.68656 3.81592
rtibia 42.1968
rfoot -14.0724 -2.58089
rtoes -7.47788
lfemur 16.4343 7.322 -36.2037
ltibia 2.79281
lfoot -13.4702 0.743479
ltoes 4.95146
1595
root 12.0093 16.9955 -2.62395 351.438 -18.652 731.379
lowerback 5.74527 -1.14778 -15.6338
upperback 1.38264 -2.51445 -2.32612
thorax -1.20498 -1.2447 6.43901
lowerneck -21.4348 -4.7346 -2.71425
upperneck 18.3518 -6.66193 4.20607
head 9.5717 -2.80738 0.943205
rclavicle 8.11601e-015 -2.3556e-014
rhumerus -49.0702 -3.77885 -76.3218
rradius 32.8883
rwrist -0.551933
rhand -12.0479 -33.9728
rfingers 7.12502
rthumb 14.0109 -63.4806
lclavicle 8.11601e-015 -2.3556e-014
lhumerus -16.3612 -25.8397 85.4915
lradius 46.783
lwrist 5.54677
lhand -15.5017 -21.2256
lfingers 7.12502
lthumb 10.6808 8.4829
rfemur -20.2415 -2.21178 4.18691
rtibia 40.3853
rfoot -13.3586 -2.75707
rtoes -8.18339
lfemur 17.0134 7.1273 -36.1031
ltibia 2.68191
lfoot -13.4088 0.348723
ltoes 8.51003
1596
root 11.9645 16.9845 -2.53096 351.502 -18.5085 732
lowerback 5.45909 -1.16428 -16.4232
upperback 1.34564 -2.52796 -2.29165
thorax -1.04184 -1.26086 6.89768
lowerneck -21.4884 -4.84649 -2.93562
upperneck 18.4268 -6.76898 4.2913
head 9.62299 -2.86053 0.990936
rclavicle 2.45996e-015 1.09332e-015
rhumerus -49.3642 -4.52218 -75.4398
rradius 32.6486
rwrist -0.645481
rhand -11.9783 -33.8432
rfingers 7.12502
rthumb 14.078 -63.3464
lclavicle 2.45996e-015 1.09332e-015
lhumerus -15.8836 -26.4204 85.6234
lradius 46.9809
lwrist 5.72573
lhand -15.3048 -21.2581
lfingers 7.12502
lthumb 10.8708 8.44056
rfemur -21.0252 -2.69952 3.71853
rtibia 38.6188
rfoot -13.0825 -3.31433
rtoes -8.60286
lfemur 17.0427 7.22459 -36.672
ltibia 2.79636
lfoot -13.6638 -0.0579543
ltoes 9.88943
1597
root 11.9254 16.9679 -2.43809 351.57 -18.3689 732.291
lowerback 5.33995 -1.2346 -16.7364
upperback 1.33962 -2.61358 -2.26061
thorax -0.943796 -1.31034 7.10072
lowerneck -21.7145 -4.90083 -3.05785
upperneck 18.6694 -6.82722 4.35034
head 9.75819 -2.88136 1.01669
rclavicle 7.40628e-015 -3.926e-015
rhumerus -49.5895 -4.75477 -75.0105
rradius 32.4246
rwrist -1.08215
rhand -11.7877 -33.7022
rfingers 7.12502
rthumb 14.2616 -63.1925
lclavicle 7.40628e-015 -3.926e-015
lhumerus -15.4647 -27.0369 85.6313
lradius 47.2789
lwrist 6.05056
lhand -15.4537 -20.9775
lfingers 7.12502
lthumb 10.7271 8.72865
rfemur -21.5833 -3.07987 3.55812
rtibia 36.8438
rfoot -13.099 -3.60366
rtoes -2.877
lfemur 17.2207 7.45726 -36.8226
ltibia 2.89388
lfoot -14.072 -0.212027
ltoes 8.33597
1598
root 11.893 16.9429 -2.34504 351.489 -18.2921 732.446
lowerback 5.39934 -1.2964 -16.7183
upperback 1.39984 -2.7009 -2.30751
thorax -0.894094 -1.3609 7.04437
lowerneck -21.8656 -4.90093 -2.95411
upperneck 18.7874 -6.86465 4.35111
head 9.82492 -2.8864 0.991049
rclavicle 4.9384e-014 -7.33018e-016
rhumerus -49.9145 -4.91276 -74.8087
rradius 32.3129
rwrist -0.953994
rhand -11.7066 -33.5955
rfingers 7.12502
rthumb 14.3397 -63.0803
lclavicle 4.9384e-014 -7.33018e-016
lhumerus -14.9173 -27.209 85.5377
lradius 47.3428
lwrist 6.0276
lhand -15.367 -20.8027
lfingers 7.12502
lthumb 10.8108 8.89907
rfemur -21.8911 -3.41911 3.5459
rtibia 34.9695
rfoot -12.5862 -3.5506
rtoes 2.31696
lfemur 17.6616 7.15618 -37.0868
ltibia 2.86187
lfoot -14.5645 0.131909
ltoes 8.28403
1599
root 11.8687 16.92 -2.24961 351.613 -18.287 732.138
lowerback 5.43362 -1.39337 -16.0249
upperback 1.42225 -2.79518 -2.30955
thorax -0.902025 -1.40787 6.66793
lowerneck -21.8517 -4.88331 -2.70306
upperneck 18.8378 -6.90223 4.25202
head 9.82854 -2.89684 0.91032
rclavicle 2.51319e-014 3.07868e-014
rhumerus -50.3107 -5.22949 -74.5489
rradius 32.2484
rwrist -0.587165
rhand -11.7184 -33.6073
rfingers 7.12502
rthumb 14.3283 -63.0929
lclavicle 2.51319e-014 3.07868e-014
lhumerus -14.4592 -27.3745 85.4149
lradius 47.4291
lwrist 5.92273
lhand -15.1835 -20.8339
lfingers 7.12502
lthumb 10.9877 8.8585
rfemur -22.2966 -4.35644 4.33854
rtibia 33.3045
rfoot -11.6228 -3.96705
rtoes -2.25205
lfemur 18.1084 6.6722 -36.9696
ltibia 2.73354
lfoot -14.9901 0.363479
ltoes 9.63287
1600
root 11.8167 16.9074 -2.15447 351.906 -18.1859 732.531
lowerback 5.02522 -1.50049 -16.4474
upperback 1.32254 -2.88805 -2.3242
thorax -0.735798 -1.46095 6.87065
lowerneck -21.6521 -4.80198 -2.6257
upperneck 18.7375 -6.79189 4.16394
head 9.74665 -2.85602 0.888403
rclavicle 6.21439e-014 -6.03436e-014
rhumerus -50.6822 -5.65966 -74.0576
rradius 32.1315
rwrist -0.544682
rhand -11.6327 -33.7696
rfingers 7.12502
rthumb 14.4109 -63.2493
lclavicle 6.21439e-014 -6.03436e-014
lhumerus -14.1355 -27.8121 85.4004
lradius 47.6793
lwrist 6.01894
lhand -15.1095 -20.9069
lfingers 7.12502
lthumb 11.0592 8.7817
rfemur -22.9672 -4.62924 4.13296
rtibia 31.3572
rfoot -10.8786 -4.25137
rtoes 7.00103
lfemur 17.9983 6.77519 -37.242
ltibia 2.84412
lfoot -15.2918 0.0165732
ltoes 9.83999
1601
root 11.7734 16.8901 -2.05641 352.094 -18.1732 732.724
lowerback 4.77924 -1.57868 -16.6949
upperback 1.26177 -2.95793 -2.23212
thorax -0.627 -1.50077 7.09683
lowerneck -21.6707 -4.93489 -2.84017
upperneck 18.8118 -6.91693 4.19093
head 9.7897 -2.92463 0.912531
rclavicle 1.14107e-014 1.72446e-014
rhumerus -51.0414 -6.06361 -73.4453
rradius 32.1165
rwrist -0.520733
rhand -11.2413 -34.1397
rfingers 7.12502
rthumb 14.788 -63.5921
lclavicle 1.14107e-014 1.72446e-014
lhumerus -13.7985 -28.2421 85.4354
lradius 47.9202
lwrist 6.4669
lhand -14.6766 -20.9937
lfingers 7.12502
lthumb 11.4766 8.67212
rfemur -23.405 -5.0854 4.25178
rtibia 29.5008
rfoot -9.96828 -4.64337
rtoes 12.601
lfemur 18.1291 7.04167 -37.2174
ltibia 2.91272
lfoot -15.5607 -0.600114
ltoes 10.6163
1602
root 11.7368 16.8678 -1.95624 352.127 -18.1498 732.955
lowerback 4.67083 -1.63953 -16.8172
upperback 1.25176 -3.02342 -2.25567
thorax -0.555096 -1.53835 7.13499
lowerneck -21.6528 -4.94326 -2.83177
upperneck 18.8647 -6.9384 4.20432
head 9.80641 -2.9319 0.912582
rclavicle 1.93318e-014 -1.44616e-014
rhumerus -51.4444 -6.43759 -73.0571
rradius 32.1619
rwrist -0.381457
rhand -10.8983 -34.3334
rfingers 7.12502
rthumb 15.1185 -63.7612
lclavicle 1.93318e-014 -1.44616e-014
lhumerus -13.4452 -28.5728 85.355
lradius 48.0985
lwrist 6.90632
lhand -14.1941 -21.0112
lfingers 7.12502
lthumb 11.9419 8.62817
rfemur -23.6495 -5.70272 4.32763
rtibia 27.6203
rfoot -8.88907 -4.92211
rtoes 13.7567
lfemur 18.441 7.34133 -37.2098
ltibia 2.9691
lfoot -15.7628 -1.50666
ltoes 12.9843
